<?xml version="1.0" encoding="UTF-8" standalone="no"?>
<!DOCTYPE svg PUBLIC "-//W3C//DTD SVG 1.1//EN" "http://www.w3.org/Graphics/SVG/1.1/DTD/svg11.dtd">
<svg xmlns="http://www.w3.org/2000/svg">
<metadata>
This is a custom SVG font generated by IcoMoon.
<iconset grid="16"/>
</metadata>
<defs>
<font id="icomoon" horiz-adv-x="512">
<font-face units-per-em="512" ascent="480" descent="-32"/>
<missing-glyph horiz-adv-x="512"/>
<glyph class="hidden" unicode="" d="M0,480L 512 -32L0 -32 z" horiz-adv-x="0"/>
<glyph unicode="" d="M 263.241-31.049c-5.413,0-10.752,0-16.238,0c-57.344,3.438-100.425,21.577-137.655,48.567    C 72.777,43.995, 44.178,76.763, 24.649,117.723c-19.383,40.814-31.89,96.475-19.968,154.478c 10.533,50.542, 32.768,89.454, 62.903,122.075    C 97.28,426.459, 134.363,452.498, 179.2,467.273c 51.054,16.823, 109.495,15.141, 157.55-2.56C 424.814,432.457, 485.303,363.995, 506.807,265.399    C 522.679,263.863, 538.551,267.886, 552.887,264.814c 22.601-4.827, 39.863-30.647, 28.745-56.686c-4.681-10.752-15.067-18.798-23.771-27.429    C 540.745,163.584, 523.849,146.542, 506.807,129.646c-8.558-8.485-16.603-19.090-26.697-24.357C 450.414,90.075, 430.738,113.408, 416.475,127.744    c-17.262,17.262-34.743,34.743-51.054,51.127C 356.864,187.355, 346.551,196.206, 341.723,206.226c-12.727,26.624, 4.462,53.687, 28.087,58.587    c 10.533,2.194, 23.625-0.366, 37.303,0.585C 386.487,333.056, 345.088,375.406, 267.63,381.33C 225.865,384.475, 191.342,372.992, 166.107,356.389    C 140.288,339.419, 120.832,317.038, 108.69,285.952c-12.873-33.207-14.482-74.459-4.901-109.056c 17.481-63.488, 69.193-106.789, 145.115-110.226    c 29.623-1.39, 58.075,6.656, 78.555,16.823c 8.046,4.096, 14.555,8.777, 23.040,9.362c 22.162,1.39, 39.205-17.115, 44.837-29.915    C 404.919,40.997, 395.41,15.031, 381.659,4.425C 367.982-6.034, 348.087-13.056, 328.631-19.273C 307.931-25.856, 284.891-30.025, 263.241-31.049z" horiz-adv-x="585.143"/>
<glyph unicode="" d="M0,224c0-141.346, 114.654-255.966, 256.034-255.966c 141.312,0, 255.966,114.62, 255.966,255.966C 512,365.346, 397.38,480, 256,480  C 114.654,480,0,365.346,0,224z M 31.437,224c0,124.006, 100.557,224.563, 224.563,224.563c 124.075,0, 224.631-100.557, 224.631-224.563  c0-124.041-100.557-224.597-224.597-224.597S 31.437,99.959, 31.437,224z M 255.215,322.236L 156.911,224.034l 61.44,0 l0-98.27 l 73.728,0 L 292.045,224.034 l 61.44,0 L 255.215,322.236z"/>
<glyph unicode="" d="M 273.067-32L 136.533,104.533L0-32L0,480L 273.067,480 z" horiz-adv-x="273.067"/>
<glyph unicode="" d="M 232.727,270.592L 232.727,503.273 L0,503.273 l0-232.681 L 232.727,270.592 z M 558.545,270.592L 558.545,503.273 L 325.818,503.273 l0-232.681 L 558.545,270.592 z M 232.727-55.273l0,232.727 L0,177.501 l0-232.727 L 232.727-55.273   z M 558.545-55.273l0,232.727 L 325.818,177.501 l0-232.727 L 558.545-55.273 z" horiz-adv-x="558.545"/>
<glyph unicode="" d="M 512,192L 512,256 l-51.488,0 c-4.192,31.040-15.36,59.84-31.68,84.768l 32.64,35.52  l-52.128,52.16L 371.52,397.792C 347.232,415.68, 319.072,429.12, 288,435.232L 288,480 L 224,480 l0-43.232 C 192.672,432, 163.52,420.48, 138.56,403.52l-34.88,32L 51.52,383.36l 31.36-43.84  C 65.312,314.88, 52.8,286.72, 46.752,256L0,256 l0-64 l 46.080,0 c 5.12-30.4, 16.352-58.56, 32.96-83.232l-34.56-31.008l 52.16-52.192l 46.4,33.632  c 24-16.992, 51.2-29.44, 80.928-35.52L 223.968-32 l 64,0 l0,48.32 c 30.080,4.48, 57.952,21.472, 82.56,37.472l 31.68-34.912l 52.192,51.84l-33.312,40  c 17.632,24, 30.752,51.232, 37.12,81.28L 512,192 z M 253.12,160.96c-38.048,0-68.8,30.72-68.8,68.48c0,38.080, 30.752,68.768, 68.8,68.768  c 37.792,0, 68.512-30.688, 68.512-68.768C 321.632,191.68, 290.912,160.96, 253.12,160.96z"/>
<glyph unicode="" d="M 255.966,480C 114.62,480, 0,365.346, 0,223.966c0-141.346, 114.62-256, 255.966-256c 141.38,0, 256,114.654, 256,256  C 511.966,365.346, 397.346,480, 255.966,480z M 255.966,448.563c 124.006,0, 224.563-100.557, 224.563-224.563c0-124.075-100.557-224.631-224.563-224.631  c-124.041,0-224.597,100.557-224.597,224.597C 31.369,348.006, 131.925,448.563, 255.966,448.563z M 354.236,224.785L 256.034,323.089l0-61.44 L 157.764,261.649 l0-73.728 l 98.27,0 l0-61.44   L 354.236,224.785z"/>
<glyph unicode="" d="M0,224c0,15.061, 9.216,30.848, 21.547,41.429L 21.461,265.472l 196.096,194.944l 0.085,0  c 16.811,16.64, 44.843,17.28, 64.555,0.768c 18.56-15.531, 23.467-41.003, 12.843-60.245l 0.085-0.085l-0.853-1.237C 293.077,397.739, 291.797,395.947, 290.389,394.24  C 289.877,393.643, 289.365,393.088, 288.853,392.491L 201.472,276.864l 300.587,0 c 28.928,0, 52.608-23.723, 52.608-52.651l0-4.352 c0-29.013-23.723-52.693-52.608-52.693  L 204.416,167.168 l 84.352-111.659c 0.555-0.555, 1.024-1.109, 1.579-1.749c 1.451-1.664, 2.645-3.456, 3.755-5.376l 0.939-1.195l-0.171-0.085  c 10.752-19.243, 5.845-44.715-12.757-60.245c-19.669-16.469-47.829-15.872-64.555,0.811l-0.085-0.085L 21.931,182.059C 9.429,193.408,0,209.451,0,224z" horiz-adv-x="554.667"/>
<glyph unicode="" d="M0,416l0-384 c0-35.2, 28.8-64, 64-64L 64,480 C 28.8,480,0,451.2,0,416z M 384,480l0-160 l-64,64L 256,320L 256,480   L 112,480 l0-512 L 384-32 c 35.2,0, 64,28.8, 64,64L 448,416 C 448,451.2, 419.2,480, 384,480z" horiz-adv-x="448"/>
<glyph unicode="" d="M 554.667,224c0,15.061-9.216,30.848-21.547,41.429l 0.085,0.043L 337.152,460.416L 337.067,460.373  c-16.811,16.64-44.885,17.323-64.555,0.811c-18.56-15.531-23.467-41.003-12.757-60.245L 259.584,400.853l 0.853-1.237C 261.675,397.739, 262.869,395.989, 264.32,394.283  C 264.789,393.643, 265.387,393.088, 265.813,392.491l 87.381-115.627l-300.587,0 C 23.723,276.864,0,253.141,0,224.213l0-4.352 c0-29.013, 23.723-52.693, 52.608-52.693l 297.643,0   l-84.352-111.616c-0.555-0.597-1.024-1.152-1.536-1.749c-1.451-1.707-2.688-3.499-3.84-5.376l-0.939-1.237l 0.171-0.085  c-10.752-19.243-5.803-44.715, 12.757-60.245c 19.755-16.469, 47.829-15.872, 64.64,0.811l 0.085-0.043l 195.541,194.475  C 545.237,193.408, 554.667,209.493, 554.667,224z" horiz-adv-x="554.667"/>
<glyph unicode="" d="M 323.904,474.784L0,474.784 l0-501.568 l 512,0 L 512,286.4 L 323.904,474.784z M 62.688,35.904L 62.688,412.096 l 73.152,0 l0-376.16 L 62.688,35.904 z   M 449.312,35.904L 198.56,35.904 L 198.56,412.096 l 94.016,0 l0-156.736 l 156.736,0 L 449.312,35.904 z M 323.904,286.688L 323.904,411.776 l 125.376-125.088L 323.904,286.688 z"/>
<glyph unicode="" d="M 146.546,5.803L 428.971,288.228l-109.938,109.938L 36.636,115.712L 146.546,5.803z M 355.954,435.086l 109.909-109.938l 44.942,44.942L 400.896,480  L 355.954,435.086z M 116.423-32L 1.195,83.228l0-115.257 L 116.423-32.028 z"/>
<glyph unicode="" d="M 341.333,38.827l 127.573,143.36L 663.936-32L 17.536-32 L 212.48,180.437L 341.333,38.827z M0,49.493  L0,397.227 l 170.667-174.080L0,49.493z M0,480l 681.003,0 L 341.333,134.827L0,480z M 512,223.104l 170.667,172.416l0-343.509 L 512,223.104z" horiz-adv-x="682.667"/>
<glyph unicode="" d="M 160.032,224C 106.88,224, 64,266.88, 64,320c0,53.12, 42.88,96, 96.032,96  c 53.12,0, 96-42.88, 96-96C 256,266.88, 213.12,224, 160.032,224z M 160.032,480C 71.68,480,0,408.32,0,320c0-88.288, 160.032-352, 160.032-352s 160,263.68, 160,352  C 320,408.32, 248.352,480, 160.032,480z" horiz-adv-x="320"/>
<glyph unicode="" d="M 256.034-32c 141.346,0, 255.966,114.688, 255.966,256.034C 511.966,365.346, 397.38,480, 256.034,480C 114.688,480, 0.034,365.346, 0.034,224  C 0.034,82.654, 114.688-32, 256.034-32z M 256.034-0.597c-124.006,0-224.563,100.557-224.563,224.597c0,124.075, 100.557,224.631, 224.563,224.631  c 124.041,0, 224.597-100.557, 224.597-224.597S 380.041-0.597, 256.034-0.597z M 157.798,223.181l 98.202-98.304l0,61.44 l 98.27,0 L 354.236,260.045 L 256,260.045 l0,61.44 L 157.798,223.181  z"/>
<glyph unicode="" d="M 475.429,319.854L 475.429,480L 402.286,480L 402.286,384.183L 292.571,480L0,224L 73.143,224L 73.143-32L 256-32L 256,114.286L 329.143,114.286L 329.143-32L 512-32L 512,224L 585.143,224 z" horiz-adv-x="585.143"/>
<glyph unicode="" d="M 317.074,370.286L 194.926,150.857L 438.857,150.857 L 317.074,370.286z M 73.143,150.857l 121.783,0 L 134.217,260.571L 73.143,150.857z M 475.429,114.286L 36.571,114.286 L 36.571,443.429 l 438.857,0 L 475.429,114.286   z M0,480l0-512 l 512,0 L 512,480 L0,480 z"/>
<glyph unicode="" d="M 512,406.857L 512,480 L 146.286,480 l0-73.143 L 512,406.857 z M 512,260.571L 512,333.714 L0,333.714 l0-73.143 L 512,260.571 z M 512,114.286L 512,187.429 L 146.286,187.429 l0-73.143 L 512,114.286 z M 512-32l0,73.143 L0,41.143 l0-73.143   L 512-32 z"/>
<glyph unicode="" d="M 307.177,474.089L 204.8,474.089 C 91.881,474.089,0,391.773,0,290.63l0-90.438 c0-101.143, 91.881-183.459, 204.8-183.459l 117.132,0 c0,0, 4.003,0.047, 6.353,0.070  c 4.236-1.257, 15.383-7.308, 23.622-11.753c 25.507-13.847, 57.297-31.116, 87.063-31.116l 0.047,0 c 2.444,0, 4.887,0.14, 7.238,0.349  c 13.219,1.35, 23.319,6.47, 29.999,15.244c 11.939,15.639, 8.425,36.375, 4.375,60.416c-2.583,15.523-5.585,33.14-5.585,52.783  c0,11.636, 5.26,21.411, 12.521,34.909c 10.845,20.177, 24.367,45.312, 24.367,86.412L 511.977,290.63 C 512,391.773, 420.096,474.089, 307.177,474.089z M 469.527,224  c0-30.441-9.798-48.663-19.27-66.327c-8.657-16.081-17.548-32.675-17.548-54.993c0-23.203, 3.421-43.52, 6.144-59.834  c 1.489-8.89, 3.468-20.503, 3.281-26.345l-0.093,0 c-1.001-0.116-1.978-0.163-2.979-0.163l-0.047,0 c-19.014,0-46.662,15.011-66.886,25.972  c-18.758,10.17-31.139,16.896-42.705,16.896c-1.885,0-7.68-0.070-7.68-0.070L 204.8,59.159 c-89.53,0-162.397,63.232-162.397,141.009L 42.426,290.63   c0,77.731, 72.844,141.009, 162.397,141.009l 102.33,0 c 89.53,0, 162.397-63.255, 162.397-141.009L 469.527,224 z M 347.601,261.841L 160.815,261.841   c-9.193,0-16.663-7.471-16.663-16.64c0-9.193, 7.471-16.64, 16.663-16.64l 186.787,0 c 9.216,0, 16.64,7.447, 16.64,16.64  C 364.241,254.371, 356.841,261.841, 347.601,261.841z M 347.601,337.92L 160.815,337.92 c-9.193,0-16.663-7.471-16.663-16.64c0-9.193, 7.471-16.64, 16.663-16.64  l 186.787,0 c 9.216,0, 16.64,7.447, 16.64,16.64C 364.241,330.449, 356.841,337.92, 347.601,337.92z M 347.601,185.74L 160.815,185.74 c-9.193,0-16.663-7.447-16.663-16.64  c0-9.169, 7.471-16.64, 16.663-16.64l 186.787,0 c 9.216,0, 16.64,7.471, 16.64,16.64C 364.241,178.292, 356.841,185.74, 347.601,185.74z"/>
<glyph unicode="" d="M 400.457,323.621L 342.857,467.237l-34.304-13.714l 52.114-129.902L 183.113,323.621 L 235.191,453.522l-34.304,13.714  L 143.323,323.621L0,323.621 l0-68.571 l 548.571,0 l0,68.571 L 400.457,323.621 z M 34.304,220.745l 45.605-240.018l 388.791,0 l 45.605,240.018L 34.304,220.745 z" horiz-adv-x="548.571"/>
<glyph unicode="" d="M 389.15,474.368c 2.68,0, 5.361,0, 8.011,0c 12.198-2.048, 19.878-8.584, 29.877-16.023    c 40.087-29.756, 77.764-58.91, 117.971-89.148c 12.348-9.276, 24.907-15.932, 27.226-34.184c0-2.47,0-4.969,0-7.499    c-2.711-16.625-11.535-23.010-23.462-32.015c-40.629-30.6-81.227-60.567-121.193-90.202c-7.168-5.361-13.463-11.505-20.811-14.426    c-20.058-7.891-37.195,2.801-44.303,14.968c-8.192,14.005-3.644,33.31-4.819,53.88c-54.212-1.205-95.443-18.372-126.524-43.249    c-31.352-25.058-54.724-58.88-70.445-99.268c-10.722,27.136-20.811,57.374-16.535,94.449c 3.223,28.341, 12.137,55.145, 22.95,75.806    c 1.476,2.861, 4.307,5.271, 3.735,8.553c 3.223,2.831, 5.692,6.686, 7.981,10.15C 196.156,332.273, 217.239,353.476, 243.411,370.281    c 29.606,19.004, 66.982,31.503, 114.236,32.557c 0.964,22.257-2.982,41.352, 4.819,54.483C 368.038,466.658, 377.495,471.748, 389.15,474.368zM 572.235,188.25c0-49.483,0-98.936,0-148.39c-5.632-38.31-27.738-60.145-65.656-66.199    c-147.004,0-293.948,0-440.952,0C 27.738-20.284, 5.632,1.551,0,39.861c0,87.010,0,174.020,0,261.060c 7.258,48.279, 39.695,71.349, 100.352,66.199    C 90.534,349.56, 82.522,331.128, 77.432,308.872C 72.312,286.705, 71.529,262.34, 71.529,233.638c0-41.261,0-81.107,0-121.736    c0-13.643-1.596-28.461, 1.054-39.484c 3.464-14.426, 13.764-22.588, 25.63-25.63c 12.198-3.132, 29.184-1.626, 45.357-1.626c 96.678,0, 188.958,0, 283.949,0    c 15.932,0, 34.033-1.988, 46.441,1.054c 11.415,2.831, 21.865,13.252, 25.088,24.034c 2.861,9.427, 1.626,22.498, 1.626,35.75    c0,7.56-1.777,22.197,0,27.768c 0.873,2.711, 5,4.307, 8.553,6.927C 531.064,156.898, 551.273,173.342, 572.235,188.25z" horiz-adv-x="572.235"/>
<glyph unicode="" d="M 512,224C 512,365.38, 397.346,480, 255.966,480C 114.654,480,0,365.38,0,224c0-141.38, 114.654-256.034, 255.966-256.034  C 397.346-32, 512,82.62, 512,224z M 480.563,224c0-124.041-100.557-224.597-224.597-224.597s-224.597,100.557-224.597,224.597  c0,124.041, 100.557,224.597, 224.597,224.597S 480.563,348.075, 480.563,224z M 256.785,125.73l 98.27,98.202l-61.44,0 L 293.615,322.236 L 219.989,322.236 l0-98.304 l-61.44,0 L 256.785,125.73z  "/>
<glyph unicode="" d="M 336.742,224l 157.338,157.286c 23.194,23.194, 24.064,60.416, 1.792,82.586S 436.531,485.222, 413.235,461.978L 256,304.742  L 98.765,461.978c-23.296,23.245-60.416,24.115-82.586,1.894s-21.402-59.392, 1.792-82.586l 157.338-157.286L 17.92,66.765  c-23.194-23.194-24.064-60.416-1.792-82.586s 59.29-21.402, 82.586,1.894l 157.235,157.235l 157.235-157.235c 23.296-23.296, 60.416-24.115, 82.586-1.894  s 21.402,59.392-1.792,82.586L 336.742,224z"/>
<glyph unicode="" d="M 64,32.032L 64,480 L0,480 l0-447.968 l0-64 l 64,0 l 448,0 l0,64 L 64,32.032 z M 279.968,94.464l 169.952,313.856  L 422.048,423.68L 279.968,161.664l-109.44,202.24l-42.24-168l 31.36-7.68l 21.76,88L 279.968,94.464z"/>
<glyph unicode="" d="M 322.206,156.258l-74.713,0 l0,186.841 l 74.713,0 L 322.206,156.258 z M 336.384,29.637l-74.713,0 l0,74.713 l 74.713,0 L 336.384,29.637 z   M 583.759,14.395L 325.514,457.826c-16.384,28.79-43.717,26.9-60.101-1.851l-258.206-440.871c-16.857-28.79-2.993-45.607, 29.854-45.607l 516.844,0   C 586.752-30.503, 600.182-14.434, 583.759,14.395z" horiz-adv-x="590.769"/>
<glyph unicode=" " horiz-adv-x="256"/>
</font>
</defs>
</svg>
